# xmcd
#
# Track frame offsets: 
#        182
#        23010
#        45657
#        68445
#        88627
#        106175
#        124110
#        145462
#        161237
#        176295
#        194197
#        219380
#
# Disc length: 3195 seconds
#
# Revision: 6
# Processed by: cddbd v1.5.2PL0 Copyright (c) Steve Scherf et al.
# Submitted via: ExactAudioCopyFreeDBPlugin 1.0
#
DISCID=a50c790c
DTITLE=Various Artist - Smooth Grooves:  A Sensual Collection [Rhino]
DYEAR=1996
DGENRE=SMB
TTITLE0=Phyllis Hyman and Michael Henderson - Can't We Fall in Love Ag
TTITLE0=ain
TTITLE1=Debra Laws - Be Yourself
TTITLE2=Shirley Murdock - Husband
TTITLE3=Mtume - You Me and He
TTITLE4=Bobby Womack - I Wish He Didn't Trust Me So Much
TTITLE5=The O'Jays - What Am I Waiting For
TTITLE6=LeRoy Hutson - It's Different
TTITLE7=The Independents - It's All Over
TTITLE8=The Persuaders - Love Gonna Pack Up (And Walk Out)
TTITLE9=Twenty-First Century - Does Your Mama Know About Me
TTITLE10=Blue Magic - Tear It Down
TTITLE11=The Dramatics - Be My Girl
EXTD=
EXTT0=
EXTT1=
EXTT2=
EXTT3=
EXTT4=
EXTT5=
EXTT6=
EXTT7=
EXTT8=
EXTT9=
EXTT10=
EXTT11=
PLAYORDER=
